<?xml version="1.0" encoding="UTF-8"?>
<!DOCTYPE svg PUBLIC "-//W3C//DTD SVG 1.1//EN" "http://www.w3.org/Graphics/SVG/1.1/DTD/svg11.dtd">
<!-- Creator: CorelDRAW X7 -->
<svg xmlns="http://www.w3.org/2000/svg" xml:space="preserve" width="343px" height="100px" version="1.1" style="shape-rendering:geometricPrecision; text-rendering:geometricPrecision; image-rendering:optimizeQuality; fill-rule:evenodd; clip-rule:evenodd"
viewBox="0 0 383 112"
 xmlns:xlink="http://www.w3.org/1999/xlink">
 <defs>
  <style type="text/css">
   <![CDATA[
    .fil0 {fill:#0070A7}
   ]]>
  </style>
 </defs>
 <g id="Layer_x0020_1">
  <metadata id="CorelCorpID_0Corel-Layer"/>
  <polygon class="fil0" points="128,99 128,15 151,15 151,99 "/>
  <polygon class="fil0" points="163,99 163,15 228,15 228,31 187,31 187,49 225,49 225,65 187,65 187,83 228,83 228,99 "/>
  <polygon class="fil0" points="241,99 241,15 305,15 305,31 264,31 264,49 302,49 302,65 264,65 264,83 305,83 305,99 "/>
  <polygon class="fil0" points="318,99 318,15 383,15 383,31 342,31 342,49 380,49 380,65 342,65 342,83 383,83 383,99 "/>
  <path class="fil0" d="M53 66c0,6 0,11 0,17 2,0 5,0 7,0l-1 -17 0 0c-2,0 -3,0 -6,0l0 0zm-14 -17c-3,1 -8,3 -7,7 1,3 3,4 5,5 10,4 24,5 35,1 2,-1 6,-2 7,-6 0,-2 -3,-4 -5,-5l0 0c0,-1 1,-1 2,-1l0 0c-4,-1 -7,-2 -11,-2 1,1 1,3 2,4 1,0 2,0 3,0 2,0 5,1 5,4 0,2 -2,3 -4,4 -8,3 -17,3 -25,1 -2,-1 -6,-2 -6,-5 2,-4 6,-4 9,-5 -1,-2 -3,-3 -5,-4 -2,0 -4,1 -5,2zm17 -24l-1 4 -5 15c1,0 3,0 4,0l0 0 0 17 0 0c1,0 3,0 5,0l0 0 -1 -17 1 0 4 0c-2,-6 -4,-12 -7,-19l0 0zm-2 -7c4,-3 7,1 10,3 12,9 22,20 31,32 1,1 1,4 0,5 -2,4 -5,7 -8,11l0 0c-6,7 -14,14 -21,21 -4,2 -8,7 -12,4 -12,-8 -22,-18 -31,-29 -2,-3 -4,-5 -5,-7 -2,-4 2,-7 3,-9 10,-12 21,-23 33,-31zm10 -11l-5 -6c0,0 -1,-1 -1,-1 -1,0 -1,0 -1,0l0 0c-1,0 -2,1 -3,1l-8 10c-12,15 -27,29 -42,40 -2,1 -3,2 -4,4 0,1 0,3 1,3 13,9 25,20 36,31 2,2 3,4 5,6 3,4 7,9 10,13 1,1 1,3 3,3 1,1 2,1 3,0l1 -1c13,-18 30,-35 49,-49 1,-1 5,-2 5,-5 0,-1 -1,-3 -2,-4l0 0c-10,-6 -19,-14 -27,-22l-10 -10c-3,-4 -7,-8 -10,-13zm-11 9c3,-3 8,-1 11,2 3,2 7,5 10,8l0 0c9,8 16,17 23,26 1,1 2,3 1,5 -2,6 -6,10 -10,15 -8,8 -17,17 -26,24 -2,1 -5,2 -7,1 -7,-4 -13,-10 -20,-15 -7,-7 -14,-15 -19,-23 -1,-1 -1,-2 -1,-4 0,-3 2,-5 4,-7 6,-8 14,-16 22,-23 1,-1 1,-1 1,-1 4,-3 7,-6 11,-8z"/>
  <path class="fil0" d="M76 103l-1 0 0 -1 0 0c1,0 1,0 1,1 0,0 0,0 0,0zm1 0c0,-1 0,-1 -2,-1l-1 0 0 4 1 0 0 -2 0 0 1 2 1 0 -1 -2c1,0 1,0 1,-1zm-2 4l0 0c-1,0 -2,-2 -2,-3 0,-2 1,-3 2,-3 2,0 3,1 3,3 0,1 -1,3 -3,3zm0 -7c-2,0 -3,1 -3,4 0,2 1,4 3,4 3,0 4,-2 4,-4 0,-3 -1,-4 -4,-4z"/>
 </g>
</svg>
