<?xml version="1.0" encoding="UTF-8"?>
<!DOCTYPE svg PUBLIC "-//W3C//DTD SVG 1.1//EN" "http://www.w3.org/Graphics/SVG/1.1/DTD/svg11.dtd">
<!-- Creator: CorelDRAW X7 -->
<svg xmlns="http://www.w3.org/2000/svg" xml:space="preserve" width="438px" height="480px" version="1.1" style="shape-rendering:geometricPrecision; text-rendering:geometricPrecision; image-rendering:optimizeQuality; fill-rule:evenodd; clip-rule:evenodd"
viewBox="0 0 156 171"
 xmlns:xlink="http://www.w3.org/1999/xlink">
 <defs>
  <style type="text/css">
   <![CDATA[
    .fil0 {fill:white}
   ]]>
  </style>
 </defs>
 <g id="Layer_x0020_1">
  <metadata id="CorelCorpID_0Corel-Layer"/>
  <g id="_495471376">
   <path class="fil0" d="M126 24c-5,10 -14,20 -17,31l0 0c-1,6 6,12 11,9l0 0c11,-5 18,-16 25,-26l0 0c6,-8 18,-27 6,-36l0 0c-2,-1 -4,-2 -6,-2l0 0c-9,0 -15,17 -19,24l0 0z"/>
   <path class="fil0" d="M57 8c0,9 5,18 8,26l0 0c3,9 8,16 14,23l0 0c4,4 12,1 12,-5l0 0c0,-5 -2,-8 -3,-12l0 0c-1,-4 -3,-9 -5,-13l0 0c-3,-9 -6,-20 -15,-26l0 0c-1,0 -2,-1 -3,-1l0 0c-4,0 -8,3 -8,8l0 0z"/>
   <path class="fil0" d="M10 36l0 0c-2,0 -3,0 -4,1l0 0c-5,2 -7,7 -5,12l0 0c2,4 6,6 10,8l0 0c4,2 8,4 12,6l0 0c3,2 6,4 9,6l0 0c3,3 6,6 9,8l0 0c4,2 10,1 11,-4l0 0c1,-11 -9,-20 -17,-25l0 0c-4,-3 -8,-5 -12,-8l0 0c-4,-1 -9,-4 -13,-4z"/>
   <path class="fil0" d="M29 96l0 0 0 0c-2,0 -3,0 -5,0l0 0c-7,0 -15,3 -19,9l0 0c-2,3 0,8 4,9l0 0c5,1 11,-1 16,-2l0 0c2,-1 5,-1 7,-2l0 0c3,0 5,0 8,-1l0 0c4,-1 5,-6 2,-9l0 0c-3,-4 -8,-4 -13,-4z"/>
   <path class="fil0" d="M48 129l0 0c-4,0 -9,3 -12,6l0 0c-4,4 -7,10 -7,16l0 0c-1,4 4,7 7,6l0 0c5,-2 8,-6 11,-10l0 0c2,-3 3,-5 6,-8l0 0c3,-3 2,-9 -3,-10l0 0c-1,0 -1,0 -2,0z"/>
   <path class="fil0" d="M71 148c-4,4 -5,10 -4,16l0 0c0,3 2,7 6,7l0 0c4,1 8,2 10,-8l0 0c0,-1 -1,-3 -1,-4l0 0c0,-3 0,-5 -1,-8l0 0c-1,-3 -4,-5 -6,-5l0 0c-2,0 -3,1 -4,2l0 0z"/>
  </g>
 </g>
</svg>
